<svg width="501" height="501" viewBox="0 0 501 501" fill="none" xmlns="http://www.w3.org/2000/svg">
  <title>Zite Icon</title>
  <rect x="0.5" y="0.5" width="500" height="500" rx="65.5308" fill="#211C20"/>
  <g clip-path="url(#clip0_15_2)">
    <path d="M124.331 107.402C132.594 99.9972 143.299 95.9021 154.394 95.9021H310.936L243.368 163.85C229.268 178.028 210.098 186.001 190.102 186.001H154.394C113.062 186.001 93.5506 134.988 124.331 107.402Z" fill="#FFC738"/>
    <path d="M377.819 394.079C369.559 401.484 358.851 405.578 347.758 405.578H191.215L258.783 337.632C272.883 323.452 292.053 315.48 312.048 315.48H347.758C389.088 315.48 408.599 366.493 377.819 394.079Z" fill="#FFC738"/>
    <path d="M338.418 105.966L105.566 338.833C89.915 354.485 89.915 379.863 105.566 395.515C121.218 411.167 146.594 411.167 162.245 395.515L395.097 162.648C410.749 146.996 410.749 121.619 395.097 105.966C379.446 90.3138 354.07 90.3138 338.418 105.966Z" fill="#FFC738"/>
  </g>
  <defs>
    <clipPath id="clip0_15_2">
      <rect width="316.514" height="318.48" fill="white" transform="translate(92.2432 91.5879)"/>
    </clipPath>
  </defs>
</svg>

